<svg id="Layer_1" data-name="Layer 1" xmlns="http://www.w3.org/2000/svg" width="3.06in" height="1.8in" viewBox="0 0 220.1 129.82"><title>Export 1 CoSSMO Option 1</title><rect width="110.8" height="110.8" style="fill:#d06328"/><g style="isolation:isolate"><g style="isolation:isolate"><path d="M89.78,93.88v6c0,7.24-3.62,11.38-10.61,11.38s-10.6-4.14-10.6-11.38V76.36c0-7.24,3.62-11.38,10.6-11.38s10.61,4.14,10.61,11.38v4.4H83.06V75.9c0-3.23-1.42-4.46-3.69-4.46s-3.69,1.23-3.69,4.46v24.44c0,3.23,1.42,4.4,3.69,4.4s3.69-1.16,3.69-4.4V93.88h6.72Z" style="fill:#fff"/></g><g style="isolation:isolate"><path d="M93.24,82c0-6,3.19-9.5,9-9.5s9,3.46,9,9.5v19.66c0,6-3.19,9.5-9,9.5s-9-3.46-9-9.5V82Zm5.94,20c0,2.7,1.19,3.73,3.08,3.73s3.08-1,3.08-3.73V81.65c0-2.7-1.19-3.73-3.08-3.73s-3.08,1-3.08,3.73v20.41Z" style="fill:#fff"/></g></g><g style="opacity:0.899999976158142;isolation:isolate"><path d="M124.63,65c6.92,0,10.48,4.14,10.48,11.38v1.42h-6.73V75.9c0-3.23-1.29-4.46-3.56-4.46s-3.56,1.23-3.56,4.46,1.42,5.76,6.08,9.83c5.95,5.24,7.82,9,7.82,14.16,0,7.24-3.62,11.38-10.61,11.38S114,107.14,114,99.9V97.12h6.73v3.23c0,3.23,1.42,4.4,3.69,4.4s3.69-1.16,3.69-4.4-1.42-5.76-6.08-9.83c-5.95-5.24-7.82-9-7.82-14.16C114.15,69.11,117.71,65,124.63,65Z"/><path d="M148.81,65c6.92,0,10.48,4.14,10.48,11.38v1.42h-6.73V75.9c0-3.23-1.29-4.46-3.56-4.46s-3.56,1.23-3.56,4.46,1.42,5.76,6.08,9.83c5.95,5.24,7.82,9,7.82,14.16,0,7.24-3.62,11.38-10.61,11.38s-10.61-4.14-10.61-11.38V97.12h6.73v3.23c0,3.23,1.42,4.4,3.69,4.4s3.69-1.16,3.69-4.4-1.42-5.76-6.08-9.83c-5.95-5.24-7.82-9-7.82-14.16C138.33,69.11,141.89,65,148.81,65Z"/><path d="M178.42,97.63h0.13l4.79-32.14h9.89v45.27h-6.73V78.3h-0.13l-4.79,32.46h-6.72l-5.17-32h-0.13v32h-6.21V65.49h9.89Z"/><path d="M197.82,76.36c0-7.24,3.82-11.38,10.8-11.38s10.8,4.14,10.8,11.38V99.9c0,7.24-3.82,11.38-10.8,11.38s-10.8-4.14-10.8-11.38V76.36Zm7.11,24c0,3.23,1.42,4.46,3.69,4.46s3.69-1.23,3.69-4.46V75.9c0-3.23-1.42-4.46-3.69-4.46s-3.69,1.23-3.69,4.46v24.44Z"/></g><g style="isolation:isolate"><path d="M194.78,124.6v1.86c0,2.24-1.12,3.52-3.28,3.52s-3.28-1.28-3.28-3.52v-7.28c0-2.24,1.12-3.52,3.28-3.52s3.28,1.28,3.28,3.52v1.36H192.7V119a1.16,1.16,0,1,0-2.28,0v7.56a1.16,1.16,0,1,0,2.28,0v-2h2.08Z"/><path d="M198.22,115.82v10.8a1.16,1.16,0,1,0,2.28,0v-10.8h2.08v10.66c0,2.24-1.12,3.52-3.28,3.52s-3.28-1.28-3.28-3.52V115.82h2.2Z"/><path d="M206.08,119.68h0v10.14h-2v-14h2.76L209,124.2h0v-8.38h2v14h-2.26Z"/><path d="M214.68,125.18l-2.78-9.36h2.3l1.66,6.38h0l1.66-6.38h2.1l-2.78,9.36v4.64h-2.2v-4.64Z"/></g></svg>